<?xml version="1.0" encoding="utf-8"?>
<!-- Generator: Adobe Illustrator 30.2.1, SVG Export Plug-In . SVG Version: 9.03 Build 0)  -->
<svg version="1.0" id="Layer_1" xmlns="http://www.w3.org/2000/svg" xmlns:xlink="http://www.w3.org/1999/xlink" x="0px" y="0px"
	 viewBox="0 0 359.8 167.6" style="enable-background:new 0 0 359.8 167.6;" xml:space="preserve">
<style type="text/css">
	.st0{fill:#FCDF40;}
	.st1{clip-path:url(#SVGID_00000135685369192985016470000009249488765051272330_);}
	.st2{fill:#FFFFFF;}
</style>
<g id="Sun">
	<path class="st0" d="M178.2,87.5l-0.6-0.9l-0.2,0.1l-8.4,6.3c-0.1,0.1-0.2,0.2-0.1,0.3c0.1,0.1,0.3,0,0.4-0.1l8.9-5.5
		C178.2,87.7,178.3,87.6,178.2,87.5z"/>
	<path class="st0" d="M145.8,80l-3-9.2c0,0,0,0,0-0.1c0,0,0-0.1,0-0.1c0,0-0.1-0.1-0.1-0.1c0-0.1,0-0.2,0-0.3l-1.5-4.8
		c-0.2,0-0.3,0-0.4,0.1l-0.7,0.2c0,0.1-0.1,0.2,0,0.2l2,5.3l3.2,8.5l0.2,0.5l2.1,5.7c0,0.1,0,0.1,0.1,0.1c0,0,0.1,0,0.1,0
		c0,0,0.1-0.1,0.1-0.2l-1.9-5.7L145.8,80z"/>
	<path class="st0" d="M161.7,64.1l-0.9-0.2l-0.2,0l-1,6c0,0,0,0.1,0,0.1c-0.1,0.1,0,0.2-0.1,0.3l-1.4,8.5l-1,6.3
		c0,0.1,0.1,0.2,0,0.2c0.2,0,0.2-0.1,0.3-0.2l1.3-6.1l1.9-8.6l0-0.2l1.3-6C161.8,64.2,161.8,64.1,161.7,64.1z"/>
	<path class="st0" d="M182.6,101.1l-4,0.5c-0.2,0-0.4,0-0.7,0.1l-2.2,0.3l-3.7,0.4c-0.1,0-0.1,0-0.2,0.1c0,0.1,0.1,0.2,0.1,0.2
		l0.6,0l0.5,0l0.5,0l0.5,0l0.5,0c0.1,0,0.9,0,0.9,0c0.1,0,0.2,0,0.2,0l2.3,0c0.2,0,0.4,0,0.7,0c0,0,0.1,0,0.2,0c0.2,0,0.3,0,0.4,0
		l0.5,0l0.5,0l0.5,0l0.5,0l0.5,0c0.2,0,0.4,0,0.6,0c0.1,0,0.2,0,0.2-0.1c0-0.4-0.1-0.7-0.1-1c0-0.1,0-0.1-0.1-0.1
		C182.7,101.1,182.7,101.1,182.6,101.1z"/>
	<path class="st0" d="M165.1,80.8l0.3-0.5l1.6-2.9l0-0.2l-0.9-0.4c-0.1,0-0.2,0-0.2,0.1l-1.3,3l-1.5,3.6l-1.4,3.3c0,0.1,0,0.1,0,0.2
		s0.1,0.1,0.2,0.1l1.6-3c0.1-0.2,0.2-0.4,0.4-0.6L165.1,80.8z"/>
	<path class="st0" d="M166.7,88.1c-0.3,0.3-0.5,0.6-0.8,0.9c-0.1,0.1-0.1,0.3-0.2,0.3c0,0-0.1,0.1-0.1,0.1c0,0,0.1,0.1,0.1,0.1
		c0.1-0.1,0.1-0.1,0.2-0.1c0.2-0.1,0.3-0.5,0.3-0.4c0,0,0.1,0,0.1,0c0.3-0.3,0.6-0.6,0.8-0.9c0.1-0.1,0.1-0.2,0.2-0.2l0.8-1
		c0.1-0.1,0.1-0.1,0.2-0.1c0.3-0.3,0.6-0.6,0.8-0.9c0.1-0.1,0.1-0.2,0.2-0.2c0.2-0.1,0.3-0.4,0.5-0.5c0.1-0.1,0.1-0.1,0.2-0.2
		c0.1-0.1,0.2-0.1,0.2-0.2c0-0.1,0.1-0.1,0.2-0.1c0.1-0.1,0.2-0.2,0.3-0.4c0.2-0.2,0.4-0.4,0.5-0.6c0.1-0.1,0.1-0.1,0.2-0.2
		c0.3-0.3,0.6-0.6,0.8-0.9c0.1-0.1,0.1-0.1,0.2-0.1c0.3-0.3,0.5-0.6,0.8-0.9c0.1-0.1,0.1-0.2,0.2-0.2l0.7-0.9l0.1-0.2
		c0.1,0.1,0.2-0.1,0.2-0.2l0.1-0.1c-0.1,0.1,0.5-0.5,0.4-0.5c0.1-0.1,0.1-0.2,0.2-0.3c0,0,0,0,0.1-0.1c0,0.1,0.3-0.2,0.3-0.3
		c0.1-0.1,0.3-0.3,0.4-0.4c0.1-0.1,0.2-0.2,0.3-0.3c0,0,0.1,0,0.1,0l0.8-0.9c0-0.1,0.1-0.2,0.3-0.3l0.8-0.9c0-0.1,0.1-0.1,0.2-0.1
		l0.8-0.9c0-0.1,0.1-0.2,0.3-0.3l0.8-0.9c0.1-0.1,0.1-0.2,0.2-0.2l-1-0.9c-0.4,0.4-0.2,0.5-0.5,0.6l-0.8,0.9c0,0.1,0,0.1-0.1,0.2
		l-0.8,0.9c0,0.1-0.1,0.3-0.2,0.3l-0.8,0.9c0,0.1,0,0.1-0.1,0.2l-0.8,0.9c0,0.1,0,0.2-0.1,0.3c-0.1,0-0.1,0.1-0.2,0.1
		c-0.1,0.1-0.2,0.3-0.4,0.4l-0.3,0.3c0,0.1-0.1,0.1-0.1,0.2c0,0,0,0,0,0c-0.1,0.1-0.2,0.2-0.3,0.3c-0.2,0.2-0.3,0.4-0.5,0.6
		l-0.1,0.1c0,0,0,0,0,0.1c0,0,0,0,0,0c-0.1,0.1-0.1,0.1-0.2,0.2c-0.3,0.3-0.6,0.6-0.8,0.9c0,0.1,0,0.1-0.1,0.2
		c-0.3,0.3-0.5,0.6-0.8,0.9c0,0.1-0.1,0.3-0.2,0.3l-0.8,0.9c0,0.1,0,0.1-0.1,0.2c-0.2,0.2-0.4,0.4-0.6,0.6c-0.1,0.1-0.2,0.2-0.2,0.3
		c0,0.1-0.1,0.3-0.2,0.3l-0.8,0.9c0,0.1,0,0.1-0.1,0.2c-0.3,0.3-0.5,0.6-0.8,0.9c0,0.1-0.1,0.3-0.2,0.3c-0.2,0.3-0.5,0.6-0.8,0.9
		C166.8,88,166.8,88.1,166.7,88.1z"/>
	<path class="st0" d="M171.3,97.2c-0.1,0-0.3,0.1-0.3,0.2c0,0.1,0.3,0.1,0.4,0l5-1.6c0,0,0.1,0,0.1,0c0,0,0.1,0,0.1,0l0.1,0
		c0.1,0,0.2-0.1,0.3-0.1l9.1-2.9c0.1,0,0.3-0.1,0.4-0.1c0,0,0.1,0,0.1,0c0,0,0,0,0.1,0l0.1,0l5-1.6c0-0.1,0-0.2,0-0.3l-0.3-0.9
		c-0.1,0-0.2,0-0.3,0l-5.2,2l-9.2,3.4L171.3,97.2z"/>
	<path class="st0" d="M140.9,84.4l-1.9-3.1c0-0.2-0.2-0.3-0.3-0.5l-1.3-2.2c-0.1,0-0.2,0-0.3,0l-0.8,0.6l0,0.2l2.5,3.4l1.7,2.2
		c0,0,0.1,0.1,0.1,0.2c0,0,0,0,0.1,0.1l2.1,2.8c0,0,0.1,0,0.1,0c0.1,0,0-0.3,0-0.3L140.9,84.4z"/>
	<path class="st0" d="M152.2,83.2c0-0.1,0-0.2,0-0.3c0-0.1,0-0.1,0-0.2c0-0.1,0-0.2,0-0.3c0-0.1,0-0.1,0-0.2c0-0.1,0.1-0.2,0-0.2
		l-0.1-3.9c0-0.2,0-0.4,0-0.7c0.1,0,0-0.1,0-0.2c0-0.1,0-0.2,0-0.2c0-0.1,0-0.9,0-1.1l0-0.5l0-0.5c0-0.2,0-0.4,0-0.5
		c0-0.2,0-0.3,0-0.5l-1.1,0.1c-0.1,0-0.1,0-0.1,0.1c0,0,0,0.1,0,0.1l0.3,2.8c0,0.1,0,0.2,0.1,0.3c0,0.1,0,0.2,0,0.3
		c0,0.1,0,0.1,0,0.2c0,0.2,0,0.4,0.1,0.6l0.1,0.6l0.4,3.2c0,0.1,0,0.2,0,0.3c0,0.1,0,0.2,0,0.2c0,0.1,0,0.2,0,0.3
		c0,0.2,0,0.4,0.1,0.6l0.1,0.5c0,0.1,0.1,0.8,0.1,0.8c0,0,0.1,0.1,0.1,0.1c0.1,0,0.1-0.2,0.1-0.2c0-0.4,0-0.7,0-1.1L152.2,83.2z"/>
</g>
<g id="Text" transform="matrix(1, 0, 0, 1, 67, 96)">
	<g>
		<defs>
			<rect id="SVGID_1_" x="-52" y="-110.5" width="338.7" height="189.3"/>
		</defs>
		<clipPath id="SVGID_00000020362055604348391420000006748840366509556627_">
			<use xlink:href="#SVGID_1_"  style="overflow:visible;"/>
		</clipPath>
		<g style="clip-path:url(#SVGID_00000020362055604348391420000006748840366509556627_);">
			<g>
				<g transform="translate(12.304428, 95.905966)">
					<g>
						<path class="st2" d="M-46.9-57.3c1.3-0.8,2.4-2,3.4-3.6c0.9-1.6,1.5-3.3,1.7-5.1c-0.1-0.1-0.3-0.1-0.4-0.2
							c-0.2,0-0.5-0.1-0.8-0.1c-4,0.2-8,0.8-12,1.9c-0.8,0.2-1.6,0.6-2.4,1.1c-0.9,0.6-1.4,1.3-1.5,2.1c-0.1,0.8,0.3,1.6,1.1,2.4
							c1.4,1.3,3.1,2.1,5.3,2.4C-50.4-56.1-48.5-56.4-46.9-57.3z M-35.1-70.3c1,0.2,2,0.2,3.1,0c0.4,0,0.8-0.1,1.1-0.1
							c10.5-0.6,21-0.6,31.5-0.1c9.7,0.3,19.4,1,29,2h0.5c2.1,0.2,3.4,0.7,4,1.3c0.2,0.2,0.3,0.5,0.3,0.9c-0.1,0.4-0.3,0.7-0.6,0.8
							c-0.3,0.2-0.6,0.3-0.9,0.3c-0.3,0.1-0.7,0.1-1,0h-0.2c-18.3-1.8-36.6-2.3-55-1.6l-2.7,0.1c-2.9,0.1-5.8,0.2-8.7,0.2
							c-1.4,0-2.3,0.6-2.7,1.9c-0.7,2-1.7,3.8-2.8,5.5c-2,2.8-4.5,4.6-7.5,5.5c-3,0.9-6.1,0.9-9.2-0.3c-1.1-0.4-2-0.9-2.9-1.5
							c-0.5-0.3-1-0.7-1.4-1.1c-0.9-0.8-1.5-1.9-1.6-3.4c-0.1-1.4,0.3-2.6,1.1-3.5c0.8-0.9,1.8-1.7,2.9-2.3c1.4-0.8,2.9-1.5,4.4-1.9
							c1.5-0.4,3-0.8,4.5-1.1c1.7-0.3,3.4-0.6,5.1-0.7c0.6-0.1,1.3-0.2,2-0.3c1.2-0.1,2.1-0.4,2.5-0.7c0.4-0.3,0.7-1.1,0.9-2.3
							c1.2-5.2,2-10.5,2.5-15.8c0.7-8,1.1-16,1.4-24.1c0.1-2.9,0.2-5.7,0.4-8.6c0.6-15.3,0.8-30.6,0.7-46c0-4.8-0.5-9.5-1.4-14.1
							c-0.1-0.6-0.2-1.3-0.2-1.9c0-0.5,0.2-0.9,0.6-1.2c0.4-0.4,0.8-0.6,1.2-0.6c0.6,0,1,0.2,1.2,0.6c0.5,0.1,0.9,0.4,1,1
							c0.1,0.3,0.2,0.5,0.2,0.7c0.5,1.5,0.8,3.1,1.1,4.6c0.6,3.9,1,7.8,1,11.8c0.1,7.8,0.1,15.7,0,23.6c-0.1,7.9-0.3,15.7-0.7,23.6
							l-0.4,9.8c-0.2,4.8-0.4,9.5-0.7,14.1c-0.4,7.6-1.5,15.2-3.3,22.6c0,0.2,0,0.3-0.1,0.5c-0.1,0.3-0.2,0.6-0.2,0.9
							C-35.1-70.8-35.1-70.6-35.1-70.3z"/>
					</g>
				</g>
			</g>
			<g>
				<g transform="translate(35.301294, 95.905966)">
					<g>
						<path class="st2" d="M-37.2-81.2c-0.4,0-0.9-0.2-1.4-0.9c-0.5-0.6-0.9-1.7-1.3-3.2c-0.4-1.5-0.5-3.6-0.4-6.3c0-0.3,0-0.6,0-1
							c0-1,0-2.2,0.1-3.6c0.1-1.4,0.3-2.6,0.6-3.7c0.3-1.1,0.8-1.8,1.4-2c1.9-0.5,2.9,0.2,3.1,2c0,0.6,0,1.2-0.1,1.8
							c0,0.3-0.1,0.6-0.1,0.9c0,0.9-0.1,1.7-0.1,2.5c0,0.7,0,1.4-0.1,2.1c0,0.4,0,1.1,0,2c0.1,1.2,0.1,2.5,0,4
							c0,1.4-0.2,2.7-0.5,3.7C-36.1-81.9-36.5-81.3-37.2-81.2z M-35.4-108.3c-0.2,0.2-0.5,0.4-0.9,0.4c-0.4,0.1-0.7,0-0.9-0.1
							c-0.2-0.2-0.4-0.5-0.5-0.8c-0.1-0.3-0.1-0.6-0.1-1c0-0.1,0.1-0.2,0.1-0.3c0-0.4,0.1-0.7,0.3-1.1c0.4-1,1.2-1.5,2.5-1.4
							c0.5,0,0.8,0.2,1,0.5c0.2,0.3,0.3,0.7,0.2,1.1C-34.1-109.9-34.6-109-35.4-108.3z"/>
					</g>
				</g>
			</g>
			<g>
				<g transform="translate(41.587873, 95.905966)">
					<g>
						<path class="st2" d="M-15.3-94.6c1.5-0.4,2.2-0.4,1.9,0.1c-0.3,0.4-1.3,0.9-3,1.3c-1.3,0.3-2.4,0.5-3.3,0.5
							c-0.9,0-1.8-0.3-2.5-0.9c-0.2,0.6-0.4,1.3-0.6,1.9c-0.4,1.2-0.7,2.4-1.1,3.5c-0.5,1.6-1.1,3.1-2,4.5c-0.7,1.2-1.7,2-2.9,2.4
							c-1.2,0.4-2.3,0.4-3.5,0c-1.1-0.4-2.1-1.3-2.8-2.6c-0.9-1.9-1.5-3.9-1.8-6c-0.7-3.1-1.1-6.2-1.2-9.4c0-0.7,0-1.4,0.1-2.1
							c0.1-0.9,0.7-1.4,1.7-1.4c0.8,0,1.2,0.5,1.4,1.3c0.2,0.8,0.2,1.7,0.2,2.5c0,0.3,0,0.6,0.1,0.8c0,0.3,0.1,1.3,0.3,3.1
							c0.2,1.7,0.5,3.6,0.9,5.6c0.4,2,0.9,3.5,1.5,4.5c0.6,1,1.3,1,2.1-0.1c0.8-1.2,1.3-2.4,1.6-3.8c0.8-2.7,1.5-5.4,2.2-8.1
							c0.3-1.3,0.8-2.4,1.5-3.4c0.8-1,1.9-1.3,3.2-0.8c0.3,0.1,0.5,0.2,0.7,0.5c0.2,0.2,0.3,0.5,0.2,0.7c0,0.3-0.1,0.7-0.2,1
							c-0.2,0.7-0.4,1.3-0.5,2c-0.1,0.7-0.1,1.2,0.1,1.6c0.3,0.4,1,0.8,2.2,0.9C-17.5-94.3-16.4-94.4-15.3-94.6z"/>
					</g>
				</g>
			</g>
			<g>
				<g transform="translate(58.714184, 95.905966)">
					<g>
						<path class="st2" d="M-29.4-81.2c-0.4,0-0.9-0.2-1.4-0.9c-0.5-0.6-0.9-1.7-1.3-3.2c-0.4-1.5-0.5-3.6-0.4-6.3c0-0.3,0-0.6,0-1
							c0-1,0-2.2,0.1-3.6c0.1-1.4,0.3-2.6,0.6-3.7c0.3-1.1,0.8-1.8,1.4-2c1.9-0.5,2.9,0.2,3.1,2c0,0.6,0,1.2-0.1,1.8
							c0,0.3-0.1,0.6-0.1,0.9c0,0.9-0.1,1.7-0.1,2.5c0,0.7,0,1.4-0.1,2.1c0,0.4,0,1.1,0,2c0.1,1.2,0.1,2.5,0,4
							c0,1.4-0.2,2.7-0.5,3.7C-28.2-81.9-28.7-81.3-29.4-81.2z M-27.6-108.3c-0.2,0.2-0.5,0.4-0.9,0.4c-0.4,0.1-0.7,0-0.9-0.1
							c-0.2-0.2-0.4-0.5-0.5-0.8c-0.1-0.3-0.1-0.6-0.1-1c0-0.1,0.1-0.2,0.1-0.3c0-0.4,0.1-0.7,0.3-1.1c0.4-1,1.2-1.5,2.5-1.4
							c0.5,0,0.8,0.2,1,0.5c0.2,0.3,0.3,0.7,0.2,1.1C-26.3-109.9-26.8-109-27.6-108.3z"/>
					</g>
				</g>
			</g>
			<g>
				<g transform="translate(65.000763, 95.905966)">
					<g>
						<path class="st2" d="M15.1-97.2c0.9-0.4,1.4-0.5,1.6-0.2c0.2,0.5-0.3,1.5-1.5,2.9c-1.1,1.4-2.7,2.8-4.6,4.2
							C6-87,2.1-85.1-1.1-84.4C-4.3-83.8-6.9-84-8.9-85c-2-1-3.5-2.5-4.5-4.3c-1.2-2-1.9-4.1-2.2-6c-0.4-2.2-0.9-3.4-1.6-3.7
							c-0.7-0.3-1.4,0-2.2,0.9c-0.8,0.9-1.5,2.1-2.2,3.6c-0.7,1.5-1.3,2.9-1.8,4.3c-0.5,1.4-0.7,2.4-0.8,3.2
							c-0.1,0.4-0.3,0.8-0.4,1.2c-0.2,0.6-0.4,1.2-0.6,1.7c-0.6,1.5-1.6,2.1-3.1,1.7c-0.8-0.1-1.3-0.6-1.4-1.5
							c-0.1-0.6-0.1-1.2-0.1-1.8c0-0.5,0-1-0.1-1.6c-0.1-3.7-0.2-7.4-0.3-11.2c0-0.5,0.2-0.8,0.6-0.9c0.4-0.2,0.9-0.3,1.5-0.2
							c0.6,0,1.1,0.1,1.5,0.2c0.4,0.2,0.7,0.4,0.7,0.7c0.1,0.6,0.1,1.1,0.1,1.6c0,0.6,0,1.1,0.1,1.4c0.1,0.3,0.3,0.3,0.6,0
							c0.3-0.3,0.8-0.9,1.5-1.9c1.1-1.8,2.6-3.3,4.3-4.6c0.8-0.6,1.7-1,2.7-1.2c1-0.2,2-0.3,3-0.1c1,0.3,1.8,0.8,2.4,1.8
							c0.6,0.9,1,1.9,1.3,3.1c0.3,1.2,0.5,2.2,0.7,3.2c0,0.3,0.1,0.5,0.1,0.7c0.2,1.3,0.5,2.5,0.9,3.6c0.4,1.1,1,1.9,1.9,2.5
							c0.9,0.6,2.1,0.8,3.8,0.7c3.6-0.3,6.5-1,8.6-2.2c2.1-1.2,3.9-2.6,5.4-4c0.2-0.2,0.4-0.4,0.6-0.6c0.3-0.2,0.6-0.4,0.8-0.7
							C13.6-96.2,14.3-96.7,15.1-97.2z"/>
					</g>
				</g>
			</g>
			<g>
				<g transform="translate(97.173252, 95.905966)">
					<g>
						<path class="st2" d="M1.6-99.6c0.5,0,0.9,0,1.3,0c0.4,0.1,0.6,0.2,0.6,0.5c0.2,2.8,0.1,6.4-0.2,10.7c-0.3,4.3-1,8.9-2,13.9
							c-1,5-2.5,10-4.4,15c-1.9,5-4.3,9.6-7.3,13.9c-2.9,4.2-6.5,7.8-10.6,10.5c-4.2,2.8-9,4.5-14.6,5.1c-4.2,0.3-7.7-0.2-10.4-1.8
							c-2.7-1.5-4.2-3.9-4.4-7.2c-0.2-3.3,1.3-7.4,4.7-12.2c3.3-4.9,8.9-10.5,16.8-16.9c4.2-3.2,8.3-6.1,12.3-8.7s7.4-4.6,10.2-6.3
							c0.8-0.5,1.5-0.9,2.1-1.2c2-1.1,2.9-2.7,2.7-4.8c0-0.2,0-0.5,0-1c0-0.6-0.1-1.3-0.1-2c-1.2,1.9-2.8,3.6-5,5.1
							c-2.1,1.5-4.3,2.6-6.5,3.2c-2.2,0.6-4.1,0.6-5.7-0.1c-1.6-0.7-2.4-2.4-2.4-5c0-1.4,0.4-2.6,1.1-3.7c1.7-3,4.1-5.4,7.1-7.1
							c1.1-0.6,2.5-1.1,4.1-1.3c1.6-0.3,3.1-0.3,4.6,0.1c1.5,0.3,2.7,1,3.6,2.1c0.2-0.3,0.6-0.6,1-0.7c0.4-0.1,0.8-0.2,1.2-0.2
							C1.5-99.6,1.5-99.6,1.6-99.6z M-5.7-92.4c1.9-1.9,2.9-3.4,3.1-4.4c-0.5-0.8-1.2-1.3-2.1-1.5c-0.9-0.2-1.9-0.2-2.9,0
							c-1,0.2-1.8,0.5-2.5,0.9c-1.8,1.2-3.2,2.6-4.1,4.3c-0.9,1.7-1.2,3.1-1,4.3c0.2,1.2,1.1,1.6,2.7,1.2S-8.8-89.5-5.7-92.4z
							 M-3.1-78.9c0-0.1,0-0.1,0.1-0.1c0-0.3,0.1-0.6,0.1-1c0-0.4,0-0.8,0-1c-0.1-0.2-0.2-0.3-0.5-0.1c-0.4,0.2-0.7,0.5-1.2,0.8
							c-2.8,1.8-6.4,4.2-10.9,7.4c-4.5,3.2-9,6.7-13.6,10.7c-0.9,0.8-2.2,2-3.9,3.6c-1.7,1.6-3.5,3.4-5.4,5.5
							c-1.9,2.1-3.6,4.2-5,6.4c-1.5,2.2-2.4,4.3-2.9,6.2c-0.5,1.9-0.2,3.6,0.9,5c1.4,1.7,3.7,2.4,6.7,2.2c3-0.2,6.4-1.4,10.1-3.4
							c3.8-2,7.4-5,11-8.8c3.6-3.8,6.7-8.5,9.3-14.1C-5.6-65.2-3.9-71.6-3.1-78.9z"/>
					</g>
				</g>
			</g>
			<g>
				<g transform="translate(117.766427, 95.905966)">
				</g>
			</g>
			<g>
				<g transform="translate(129.507536, 95.905966)">
					<g>
						<path class="st2" d="M84.8-147.6c0.9-2.5,1.4-5,1.5-7.7c0.1-5.1-2-8.9-6.3-11.4c-2.9-1.7-5.9-2.8-9.1-3.4
							c-6.6-1.1-13.2-1.5-20-1c-7.4,0.4-14.6,1.4-21.6,3.1c-7,1.7-14,3.8-20.8,6.5c-3.3,1.3-6.5,2.9-9.5,4.8
							c-1.2,0.7-2.3,1.5-3.4,2.3c-1.1,0.9-2,1.9-2.8,3c-1.7,2.3-1.5,4.4,0.7,6.2c0.9,0.8,1.9,1.4,2.9,1.9c1.7,0.8,3.4,1.5,5.1,2.2
							c5.1,1.7,10.3,3,15.6,3.9c1.1,0.2,1.8,0.2,2.1-0.1c0.3-0.3,0.4-1,0.2-2.2c0-0.9-0.1-1.8-0.3-2.7c-0.1-0.6-0.1-1.3-0.2-2
							c-0.2-0.7-0.2-1.3,0-1.9c0.3-0.8,0.8-1.2,1.8-1.4c0.4,0,0.7,0.1,0.9,0.3c0.2,0.2,0.4,0.5,0.5,0.8c0.2,0.6,0.4,1.2,0.5,1.9
							c0.3,2.2,0.6,4.4,0.9,6.6c0.1,1,0.7,1.6,1.8,1.8c1.5,0.2,2.9,0.4,4.4,0.6c0.2,0,0.4,0.1,0.6,0.1c1.8,0.3,3.5,0.6,5.2,1
							c0.6,0.1,1.2,0.4,1.7,0.8c0,0,0.1,0,0.1,0c0.2,0.1,0.3,0.2,0.4,0.5c0.1,0.2,0,0.5,0,0.7c-0.1,0.2-0.2,0.4-0.3,0.6
							c-0.7,0.5-1.4,0.7-2.2,0.6c-0.9-0.1-1.7-0.2-2.5-0.3c-0.4-0.1-0.9-0.1-1.4-0.2c-1.6-0.2-3.1-0.4-4.6-0.6
							c-0.6-0.1-1.2-0.2-1.8-0.2c-0.3,0.3-0.5,0.7-0.6,1c-0.1,0.3-0.1,0.6-0.1,0.9c0,0,0,0.1,0,0.1c0,11,0,22.1,0,33.1
							c0,2.2,0,4.3,0,6.6c0.1,0,0.3,0,0.4,0.1c0.2,0.1,0.3,0.1,0.5,0.1c0.9-0.4,1.7-0.8,2.5-1.2c8.9-4.8,17.3-10.3,25.2-16.6
							c5.1-4.1,9.9-8.4,14.4-13.1c4.5-4.7,8.6-9.7,12.3-15.1C81.5-140.2,83.4-143.8,84.8-147.6z M-4.9-139.4c-1.4-0.6-2.7-1.4-4-2.2
							c-4-2.9-4.6-6.4-1.6-10.5c0.8-1.1,1.7-2.1,2.8-3s2.2-1.7,3.3-2.5c4.3-2.8,8.9-5,13.7-6.9c14.4-5.7,29.3-9,44.7-9.9
							c6.7-0.5,13.4,0,19.9,1.3c2.7,0.5,5.2,1.4,7.6,2.6c0.7,0.3,1.4,0.6,2.1,1c5.8,3.1,8.5,7.9,8.2,14.5c-0.3,3.8-1.2,7.5-2.9,11
							c-1.4,3-2.9,5.8-4.7,8.6c-1.8,2.7-3.7,5.4-5.9,7.9C68.3-115.4,56.5-105.1,43-96.8c-5.1,3.3-10.3,6.2-15.8,8.8
							c-1.1,0.5-1.8,1.2-2.3,2c-0.4,0.8-0.6,1.7-0.6,2.9c-0.3,11.5-0.6,23.1-1,34.6c-0.1,2.4-0.1,4.7-0.2,7c0,1.6-0.1,3.3-0.3,5
							c0,0.2,0,0.4,0,0.5c0,0.8-0.5,1.4-1.3,1.8c-0.4,0.2-0.8,0.2-1.1,0c-0.2-0.1-0.3-0.2-0.4-0.3c-0.2,0-0.4-0.1-0.5-0.1
							c-0.3-0.2-0.5-0.5-0.6-0.9c-0.1-0.4-0.1-0.7,0-1.1V-37c0-1.7,0-3.4,0.1-5.1l0.4-40.5c0-0.4,0-0.7-0.1-1.1l-0.1-0.2
							c-0.1,0-0.2,0-0.3,0.1c-0.4,0.1-0.7,0.2-1,0.4c-0.2,0-0.3,0.1-0.5,0.2c-5.9,2.6-11.9,4.8-18,6.7c-6.1,1.9-12.3,3.6-18.6,5
							c-1.4,0.4-2.1,0.3-2.2-0.2c-0.7,0-1-0.2-0.9-0.7c0.1-0.5,0.3-0.8,0.7-1.1c0.4-0.2,0.8-0.4,1.2-0.5h0.1c1.3-0.4,2.6-0.8,4-1.1
							l2-0.5C-3.5-78.4,7-82.1,17.1-86.8c0.8-0.3,1.4-0.8,1.8-1.3c0.4-0.5,0.6-1.3,0.6-2.2c0.1-9.8,0.2-19.6,0.4-29.5l0.1-9.8
							c0-0.4,0-0.8-0.1-1.2c0-1.1-0.1-1.9-0.4-2.2c-0.1,0-0.1,0-0.1-0.1c-0.3-0.1-0.7-0.2-1.3-0.2c-6.9-1-13.6-2.6-20.2-5
							C-3.1-138.6-4-139-4.9-139.4z"/>
					</g>
				</g>
			</g>
			<g>
				<g transform="translate(185.786288, 95.905966)">
					<g>
						<path class="st2" d="M29.6-93.3c0.4-0.8,0.7-1.2,0.8-1.1c0.2,0.1,0.2,0.4,0.1,1c-0.1,0.6-0.2,1.2-0.4,2
							c-0.3,1.1-0.7,2.4-1.4,3.9c-0.7,1.5-1.4,2.8-2.2,4c-1.2,1.7-2.7,3-4.4,3.8c-1.8,0.8-3.3,1.1-4.8,0.6c-1.4-0.4-2.3-1.8-2.5-4
							c0-1.9,0.1-4,0.5-6.2c0.1-0.9,0.3-1.9,0.4-2.8c0-0.3-0.1-0.6-0.2-0.8c-0.2-0.2-0.4-0.2-0.6-0.2c-0.2,0-0.4,0-0.6,0
							c-1.1,0.2-2.3,0.2-3.5-0.1c-1.4-0.4-2.2-1.1-2.4-2.1c-0.2-1-0.2-2.2,0.1-3.8c0.1-1.1,0.6-2,1.2-2.5c0.7-0.6,1.5-0.8,2.5-0.7
							c1.3,0.1,1.9,0.6,1.9,1.5c0,0.9-0.3,1.8-0.7,2.8c-0.4,0.8-0.6,1.6-0.7,2.1c0,0.6,0.5,0.8,1.5,0.6c0.2-0.1,0.5-0.1,0.8-0.2
							c0.4-0.2,0.8-0.3,1.2-0.4c0.5-0.1,1.1-0.1,1.9-0.1c0.9,0,1.5,0.4,1.8,1.2c0.3,0.8,0.4,1.8,0.4,3c0,1.2-0.2,2.4-0.3,3.6
							c-0.2,1.5-0.3,2.9-0.3,4c0,1.1,0.3,1.7,1,1.9c0.8,0.2,2.1-0.5,3.8-2.3C25.9-86.1,27.7-89.1,29.6-93.3z"/>
					</g>
				</g>
			</g>
			<g>
				<g transform="translate(199.931089, 95.905966)">
					<g>
						<path class="st2" d="M22.6-101.1c2.7-0.1,4.5,1.1,5.5,3.7c0.7,1.9,0.9,4,0.6,6.1c-0.3,2.2-1,4-2.2,5.4c-1.1,1.3-2.4,2.2-4,2.6
							C21-82.9,19.5-83,18-83.6c-1.5-0.6-2.7-1.9-3.5-3.7c-0.7-1.6-0.9-3.3-0.7-5c0.2-1.4,0.6-2.7,1.2-4.1c0.7-1.6,1.7-2.8,3-3.5
							C19.3-100.6,20.8-101,22.6-101.1z M21.4-85.5c1.1-0.7,1.9-1.7,2.4-2.9c0.5-1.3,0.8-2.7,0.8-4.1c0.1-1.5-0.1-2.8-0.3-4.1
							c-0.4-1.8-0.9-2.6-1.6-2.6c-0.7,0-1.3,0.6-2,1.8c-0.7,1.1-1.3,2.5-1.8,4.1c-0.5,1.6-0.8,3.2-1,4.7c-0.1,1.5,0.1,2.6,0.6,3.2
							C19-84.7,20-84.7,21.4-85.5z"/>
					</g>
				</g>
			</g>
			<g>
				<g transform="translate(212.342467, 95.905966)">
					<g>
						<path class="st2" d="M26.7-101.1c2.7-0.1,4.5,1.1,5.5,3.7c0.7,1.9,0.9,4,0.6,6.1c-0.3,2.2-1,4-2.2,5.4c-1.1,1.3-2.4,2.2-4,2.6
							c-1.6,0.4-3.1,0.2-4.6-0.4c-1.5-0.6-2.7-1.9-3.5-3.7c-0.7-1.6-0.9-3.3-0.7-5c0.2-1.4,0.6-2.7,1.2-4.1c0.7-1.6,1.7-2.8,3-3.5
							C23.4-100.6,25-101,26.7-101.1z M25.5-85.5c1.1-0.7,1.9-1.7,2.4-2.9c0.5-1.3,0.8-2.7,0.8-4.1c0.1-1.5-0.1-2.8-0.3-4.1
							c-0.4-1.8-0.9-2.6-1.6-2.6c-0.7,0-1.3,0.6-2,1.8c-0.7,1.1-1.3,2.5-1.8,4.1c-0.5,1.6-0.8,3.2-1,4.7c-0.1,1.5,0.1,2.6,0.6,3.2
							C23.2-84.7,24.1-84.7,25.5-85.5z"/>
					</g>
				</g>
			</g>
			<g>
				<g transform="translate(224.753845, 95.905966)">
					<g>
						<path class="st2" d="M56.2-90.6c-2.3,3.1-4.5,5-6.6,5.9c-2.1,0.9-4,1.1-5.7,0.6c-1.7-0.5-3.2-1.2-4.4-2.2
							c-1.2-1-2.1-1.9-2.8-2.6c-0.2-0.2-0.3-0.4-0.5-0.5c4,7.3,6.6,13.8,7.9,19.4c1.3,5.7,1.6,10.3,1,14c-0.6,3.7-1.9,6.3-3.7,7.9
							c-1.8,1.5-3.9,1.9-6.3,1c-2.3-0.9-4.5-3.1-6.7-6.6c-2.1-3.5-3.8-8.5-4.9-15c-1.2-6.4-1.4-14.4-0.9-24
							c0.5-9.6,2.3-20.9,5.2-33.9c0.7-3.1,1.8-6.6,3.1-10.7c1.3-4.1,3-8,5-11.7c2-3.7,4.4-6.6,7.1-8.6c1.2-0.8,2.5-1.4,3.9-1.6
							c3.7-0.6,6.3-0.2,7.9,1.3c1.5,1.5,2.3,3.7,2.2,6.6c-0.1,2.9-0.8,6.3-2.1,10.1c-1.3,3.8-2.9,7.7-4.8,11.8
							c-1.9,4.1-3.9,8-6.1,11.8s-4.1,7-5.9,9.9c-1.8,2.8-3.1,4.9-4.1,6.2c-0.3,0.4-0.6,0.8-0.9,1.3c-0.2,0.2-0.3,0.5-0.5,0.7
							c3.2,4.7,6.1,7.9,8.6,9.6c2.5,1.7,4.6,2.5,6.5,2.3c1.8-0.2,3.4-0.9,4.7-2c1.3-1.1,2.3-2.3,3.1-3.4c0.4-0.5,0.8-1,1.1-1.3
							c0.3-0.3,0.6-0.5,0.8-0.4c0.7,0.2,0.8,0.6,0.4,1.5C57.5-92.4,56.9-91.5,56.2-90.6z M29.6-104.8c-0.2,1.3-0.1,2.2,0.1,2.5
							c0.3,0.3,0.9-0.1,1.8-1.4c1.3-1.9,3-4.5,5.1-7.8c2-3.3,4.2-7,6.4-11c2.2-4,4.2-8.1,5.9-12.2c1.8-4.1,3-7.9,3.8-11.5
							c0.8-3.6,0.8-6.5-0.1-8.9c-0.3-1-1-1.6-1.9-1.8c-0.9-0.2-1.9-0.1-2.9,0.5c-2.2,1.3-4.2,3.5-6,6.7c-1.8,3.2-3.4,6.9-4.8,11.2
							c-1.4,4.2-2.6,8.6-3.6,13c-1,4.4-1.8,8.5-2.5,12.1C30.2-109.8,29.8-106.9,29.6-104.8z M37.8-49.3c1.9-0.8,2.9-2.7,3.2-5.6
							c0.2-2.9-0.1-6.4-0.9-10.5c-0.9-4.1-2-8.2-3.5-12.4c-1.4-4.2-2.9-7.9-4.4-11.2c-1.5-3.3-2.7-5.7-3.6-7.1
							c-0.6,7.4-0.6,14,0,19.9c0.6,5.9,1.4,10.9,2.6,15c1.2,4.1,2.4,7.2,3.7,9.2C36.1-50,37.1-49.1,37.8-49.3z"/>
					</g>
				</g>
			</g>
		</g>
	</g>
</g>
<g id="Scripture">
	<path class="st2" d="M176,127.3v4c0,0.1,0,0.3,0,0.4c0,0.1,0,0.3-0.1,0.4c-0.1,0.1-0.1,0.2-0.2,0.3c-0.1,0.1-0.2,0.1-0.5,0.1
		c-0.2,0-0.3,0-0.4-0.1c-0.1-0.1-0.2-0.2-0.3-0.2c-0.1-0.1-0.1-0.2-0.1-0.3c0-0.1,0-0.2,0-0.3h-0.7c0,0.4,0.1,0.7,0.4,0.9
		c0.2,0.2,0.6,0.3,1.1,0.3c0.3,0,0.6-0.1,0.8-0.2c0.2-0.1,0.4-0.2,0.5-0.4c0.1-0.2,0.2-0.3,0.2-0.5c0-0.2,0-0.4,0-0.5v-3.9H176z"/>
	<path class="st2" d="M182,130.1c-0.1-0.2-0.2-0.5-0.4-0.6c-0.2-0.2-0.4-0.3-0.6-0.5c-0.2-0.1-0.5-0.2-0.8-0.2
		c-0.3,0-0.6,0.1-0.9,0.2c-0.2,0.1-0.5,0.3-0.6,0.5c-0.2,0.2-0.3,0.4-0.4,0.6c-0.1,0.2-0.1,0.5-0.1,0.8c0,0.3,0,0.5,0.1,0.8
		c0.1,0.2,0.2,0.5,0.4,0.6c0.2,0.2,0.4,0.3,0.6,0.5c0.2,0.1,0.5,0.2,0.9,0.2c0.3,0,0.6-0.1,0.8-0.2c0.2-0.1,0.5-0.3,0.6-0.4
		c0.2-0.2,0.3-0.4,0.4-0.7c0.1-0.2,0.1-0.5,0.1-0.8C182.1,130.6,182.1,130.3,182,130.1z M181.2,131.7c-0.1,0.2-0.2,0.4-0.3,0.5
		s-0.3,0.2-0.4,0.2c-0.2,0-0.3,0.1-0.4,0.1c-0.1,0-0.3,0-0.4-0.1c-0.2,0-0.3-0.1-0.4-0.2s-0.2-0.3-0.3-0.5c-0.1-0.2-0.1-0.5-0.1-0.9
		c0-0.4,0-0.7,0.1-0.9c0.1-0.2,0.2-0.4,0.3-0.5s0.3-0.2,0.4-0.2c0.2-0.1,0.3-0.1,0.4-0.1c0.1,0,0.3,0,0.4,0.1c0.2,0,0.3,0.1,0.4,0.2
		s0.2,0.3,0.3,0.5c0.1,0.2,0.1,0.5,0.1,0.9C181.4,131.2,181.3,131.5,181.2,131.7z"/>
	<path class="st2" d="M183.1,127.3v5.5h0.7v-2.2c0-0.1,0-0.2,0-0.4c0-0.2,0.1-0.3,0.1-0.4c0.1-0.1,0.2-0.3,0.3-0.4
		c0.2-0.1,0.4-0.2,0.6-0.2c0.2,0,0.3,0,0.4,0.1c0.1,0.1,0.2,0.2,0.2,0.3c0.1,0.1,0.1,0.2,0.1,0.4c0,0.1,0,0.3,0,0.4v2.4h0.6v-2.6
		c0-0.3,0-0.5-0.1-0.7c-0.1-0.2-0.2-0.3-0.3-0.4c-0.1-0.1-0.3-0.2-0.4-0.2c-0.1,0-0.3-0.1-0.4-0.1c-0.2,0-0.4,0-0.6,0.1
		c-0.2,0.1-0.4,0.2-0.5,0.4l-0.1,0.1h0v-2.1H183.1z"/>
	<path class="st2" d="M190.8,132.8v-2.5c0-0.1,0-0.2,0-0.4c0-0.2-0.1-0.3-0.2-0.5c-0.1-0.2-0.2-0.3-0.4-0.4
		c-0.2-0.1-0.4-0.2-0.8-0.2c-0.1,0-0.3,0-0.5,0.1c-0.2,0.1-0.4,0.2-0.6,0.4l-0.1,0.1h0v-0.5h-0.7v3.9h0.7v-2.4c0-0.2,0-0.4,0.1-0.5
		c0.1-0.2,0.1-0.3,0.2-0.4c0.1-0.1,0.2-0.2,0.3-0.2c0.1-0.1,0.3-0.1,0.4-0.1c0.2,0,0.4,0.1,0.5,0.1c0.1,0.1,0.2,0.2,0.2,0.3
		c0.1,0.1,0.1,0.2,0.1,0.4c0,0.1,0,0.2,0,0.2v2.6H190.8z"/>
	<path class="st2" d="M195.6,129.3c0.2-0.1,0.3-0.1,0.4-0.1c0.1,0,0.3,0,0.4,0c0.2,0,0.5,0,0.7,0.1c0.2,0.1,0.4,0.2,0.6,0.4
		c0.2,0.2,0.3,0.3,0.4,0.6c0.1,0.2,0.1,0.4,0.1,0.7c0,0.3-0.1,0.6-0.2,0.9c-0.1,0.2-0.2,0.5-0.4,0.6c-0.2,0.2-0.4,0.3-0.6,0.4
		c-0.2,0.1-0.5,0.1-0.8,0.1c-0.2,0-0.5,0-0.7-0.1c-0.2-0.1-0.4-0.2-0.5-0.3c-0.1-0.1-0.2-0.3-0.3-0.4c-0.1-0.2-0.1-0.3-0.1-0.5h0.6
		c0,0.1,0,0.3,0.1,0.4c0.1,0.1,0.1,0.2,0.2,0.3c0.1,0.1,0.2,0.2,0.3,0.2c0.1,0.1,0.3,0.1,0.4,0.1c0.2,0,0.3,0,0.5-0.1
		c0.2-0.1,0.3-0.2,0.4-0.3c0.1-0.1,0.2-0.3,0.3-0.5c0.1-0.2,0.1-0.5,0.1-0.8c0-0.4-0.1-0.7-0.3-1c-0.2-0.3-0.6-0.4-1-0.4
		c-0.1,0-0.3,0-0.4,0c-0.2,0-0.4,0.1-0.6,0.2l0.7-2.4h2.4l-0.2,0.4H196L195.6,129.3z"/>
	<path class="st2" d="M199.1,132.5c0,0.1,0,0.2,0.1,0.3c0.1,0.1,0.2,0.1,0.3,0.1c0.1,0,0.2,0,0.3-0.1c0.1-0.1,0.1-0.2,0.1-0.3
		c0-0.1,0-0.2-0.1-0.3c-0.1-0.1-0.2-0.1-0.3-0.1c-0.1,0-0.2,0-0.3,0.1S199.1,132.4,199.1,132.5z M199.1,129.2c0,0.1,0,0.2,0.1,0.3
		c0.1,0.1,0.2,0.1,0.3,0.1c0.1,0,0.2,0,0.3-0.1c0.1-0.1,0.1-0.2,0.1-0.3c0-0.1,0-0.2-0.1-0.3c-0.1-0.1-0.2-0.1-0.3-0.1
		c-0.1,0-0.2,0-0.3,0.1S199.1,129.1,199.1,129.2z"/>
	<path class="st2" d="M204.4,132.8h-3.6l1.5-1.6c0.1-0.2,0.3-0.3,0.4-0.5c0.2-0.2,0.3-0.4,0.4-0.6c0.1-0.2,0.2-0.4,0.3-0.6
		c0.1-0.2,0.1-0.4,0.1-0.7c0-0.4-0.1-0.6-0.3-0.9c-0.2-0.2-0.4-0.3-0.7-0.3c-0.2,0-0.3,0-0.4,0.1c-0.1,0.1-0.2,0.2-0.3,0.3
		c-0.1,0.1-0.1,0.2-0.2,0.4c0,0.2-0.1,0.3-0.1,0.5h-0.8c0-0.2,0-0.4,0.1-0.6c0.1-0.2,0.2-0.4,0.4-0.5c0.2-0.1,0.3-0.2,0.5-0.3
		c0.2-0.1,0.5-0.1,0.7-0.1c0.3,0,0.5,0,0.8,0.1c0.2,0.1,0.4,0.2,0.6,0.3c0.2,0.1,0.3,0.3,0.4,0.5c0.1,0.2,0.1,0.4,0.1,0.6
		c0,0.2,0,0.5-0.1,0.7c0,0.2-0.1,0.4-0.2,0.5c-0.1,0.2-0.2,0.3-0.4,0.5c-0.2,0.2-0.4,0.4-0.6,0.7l-1,1.1h2.4V132.8z"/>
	<path class="st2" d="M207.9,131.1h0.7v0.4h-0.7v1.3h-0.6v-1.3h-2.4l2.7-4.2h0.3V131.1z M205.5,131.1h1.7v-2.7L205.5,131.1z"/>
</g>
</svg>
