<?xml version="1.0" encoding="UTF-8"?>
<svg id="Layer_2" data-name="Layer 2" xmlns="http://www.w3.org/2000/svg" viewBox="0 0 1034.17 560.88">
  <defs>
    <style>
      .cls-1 {
        fill: #d7b937;
      }

      .cls-2 {
        fill: #b7b7b9;
      }
    </style>
  </defs>
  <g id="Layer_1-2" data-name="Layer 1">
    <g>
      <path class="cls-1" d="M870.33,49.1c.31.37-.56,1.44.16,1.83,1.34.37,1.15-1.3.71-1.87-.23-.3-.47-.59-.85-.97l15.32-37.81c.94-2.33,3.12-3.92,5.01-3.06,5.78,2.63-.27,11.59-2.89,17.38l-14.62,32.24-4.01,9.26-4.57,10.27-4.34,9.63c-4.56,10.12-10.2,21.33-15.15,31.97l-6.92,14.86c-2.45,5.27-4.98,10.03-7.72,15.33-2.28-3.05.6-4.96,1.62-7.48l5.53-13.56c2.2-5.41,5.07-10.53,6.74-16.12.85-2.85,2.11-4.99,3.19-7.65l9.06-22.21c2.43-5.96,4.67-11.64,7.33-17.49,2.28-5.02,3.32-10.39,6.41-14.57Z"/>
      <path class="cls-1" d="M742.67,62.1c1.46-1.82.89-4.9.4-7.02-1.09.88-.53,1.58-.74,2.02.21.1-3-16.35-2.39-11.36l-5.11-42.39c-.3-2.49,2.79-3.44,4.14-3.35,1.97.13,2.66,2.26,2.94,4.49l3.37,27.62.85,9.04,1.11,10.89c.53,5.17.46,9.86,1,15.05l.94,9.06c.42,4.08.18,7.93,1.02,12.05,1.91,9.39,2.48,23.44,3.45,32.79l1.02,9.91c.45,4.35,1.37,8.24.18,12.32-2.95-6.96-2.78-13.77-3.78-20.67l-2.16-14.87-1.82-9.48-2.1-15.86-2.31-20.25Z"/>
      <path class="cls-1" d="M907.52,339.02l13.85,5.38,9.08,3.87,24.31,10.72,60.77,27.15c2.17.97,3.94,1.62,4.03,3.49.1,2.11-.53,4.02-2.23,4.77-1.07.47-3.48.64-4.94-.31-7.81-5.08-15.92-8.65-24.15-12.79l-30.71-15.43-12.11-5.96c-6.17-3.04-12.09-5.68-18.17-8.68l-22.67-11.19c.89-.56,1.91-.82,2.93-1.02Z"/>
      <path class="cls-1" d="M885.86,193.96c-2.1-2.28,16.76-16.02,20.22-19.08l14.43-12.78c2.92-2.59,6.06-4.45,8.88-7.1s6.2-4.99,9.14-7.65l5.8-5.23c2.43-2.19,4.68-3.87,7.14-5.97l6.47-5.53,15.21-13.61c4.34-3.89,8.52-7.48,12.55-11.56,1.64-1.66,3.47-2.23,4.61-1.59,7.56,4.23-5.25,12.28-11.63,17.34l-21.28,16.86-21.05,16.8-9.4,7.64c-2.89,2.35-15.81,11.77-17.48,13.61,1.48-1.63-21.15,16.54-23.6,17.85Z"/>
      <path class="cls-1" d="M792.21,143.61c.03-11.49,2.14-18.4,3.53-29.52l2.33-18.59,1.82-13.22c.68-4.94,4.49-32.9,6.22-33.96.75-.46,2.55-1.32,3.47-.46,2.58,2.41,1.67,5.51,1.06,8.54l-6.33,31.76-8.05,39.85c-1.09,5.41-1.06,10.51-4.06,15.59Z"/>
      <path class="cls-1" d="M872.08,153.28l-5.05,6.6c-2.46,3.21-5.36,5.9-8.24,8.8-1.13-1.25,9.15-14.94,8.73-14.47,5.66-6.34,10.29-12.92,15.39-19.63l20.32-26.73c2.36-3.11,4.79-7.23,9.19-7.66,1.85-.18,2.14,2.38,2.14,3.4,0,1.66-.82,3.02-2.48,4.18-2.23,1.56-3.12,4.13-4.91,6.1l-12.33,13.58c-3.03,3.34-5.54,7.14-8.84,10.16-2.23,2.04-3.64,4.31-5.58,6.45l-8.34,9.22Z"/>
      <path class="cls-1" d="M912.4,221.22c.54-.58.8-1.43,1.17-2.11l35.76-16.99,19.7-9.18,14.21-6.83c1.83-.88,3.74-1.09,4.69-.05.65.72,2.56,2.96,1.41,4.07-3.14,3.05-8.24,3.38-12.1,5.57-6.38,3.61-15.23,5.79-21.43,8.67-4.09,1.9-7.9,3.4-12.07,5.05-10.57,4.18-20.6,9.17-31.34,11.8Z"/>
      <path class="cls-1" d="M978.9,309.56l12.88,2.39c1.26.94.73,4.64-.57,5.9l-28.08-5.59c-12.35-2.46-24.4-4.68-36.9-6.86-2.95-.51-5.34-.49-8.08-1.85s-6.23-.4-9.15-2.22c.19-3.24,19.97,1.14,22.82,1.41,4.57.44,8.74.71,13.31,1.7,6.68,1.44,13.44,1.78,20.34,2.91l13.43,2.2Z"/>
      <path class="cls-1" d="M1031.4,243.26c-8.45.61-19.79,4.54-26.99,3.49-3.86,3.17-8.62,1.54-12.84,2.63-4.45,1.15-8.39,1.61-12.89,2.19l-15.13,1.97-14.05,1.93-11.06,1.86-23.65,3.21-7.36,1.45c-1.05.17-2.67-.81-3.4,1.66,2.42.48,5.47,1.01,7.65.12,1.13-.46,16.13-1.58,19.68-1.97l9.04-.98,10.79-1.02c4.88-.46,9.26-1.56,14.15-2.05l10.03-1c3.36-.34,6.65-1,10.04-1.21l11.93-.73c3.15-.19,5.91-.7,9.15-.98l10.94-.97c5.3-.47,10.32-1.53,15.58-2.54,2.1-.4,1.17-7.27-1.62-7.07Z"/>
      <path class="cls-2" d="M742.67,62.1c-.25-2.23-.35-3.61-.35-5,.22-.44-.34-1.14.74-2.02.49,2.11,1.06,5.2-.4,7.02Z"/>
    </g>
    <g>
      <path d="M295.47,473.15c-.01-2.84-1.42-6.02-1.88-8.85-.81-4.99.92-10.2,1.69-15.09,1.15-.22.81-1.47,1.04-2.28,1.91-6.53,5.22-12.63,9.87-18.24,14.19-17.13,38.33-35.05,57.65-46.02l17.18-9.76c7.79-4.42,15.93-7.73,23.32-12.93,1.54-1.09,3.66-16.52,2.07-19.39l-5.49,7.07c-8.46,10.89-30.12,23.54-40.97,11.97-3.78-4.03-3.48-9.02-4.76-15.51-8.09,7.35-16,14.08-26.58,15.04-7.55.68-13.02-3.49-14.43-10.65-2.83-14.42,3.24-23.23-1.23-29.27-6.42-1.27-19.89,28.31-22.49,34.09-2.07,4.6-6.05,13.44-11.43,12.66-6.05-.88-5.78-14.25-6.53-19.55-4.97,6.05-9.56,11.19-15.98,14.32s-13.49,2.12-17.49-4.19-4.29-13.53-4.07-22.08c-7.25,3.27-13.59,2.06-19.89-2.33-5.85,10.42-9.61,24.11-18.21,32.1-4.89,4.54-11.5,4.01-15.89-.85-5.57-6.16-7.67-13.88-9.75-22.71-6.62,9.92-13.96,20.64-25.94,23.93-4.94,1.35-9.67-.77-12.22-4.99-7.03-11.65-3.54-33.74-.29-46.42.75-2.92,2.6-4.83,5.17-4.78,11.35.2,2.81,21.94,5.55,36.36.39,2.06.97,6.38,3.39,6.87,7.28,1.47,21.9-17.22,21.86-19.86l-.23-18.56c-.04-3.14,2.56-5.45,5.51-5.72,2.51-.23,4.69.99,6.15,3.66,4.49,8.26-2.26,21.47,7.61,43.24.57,1.25,2.22,2.19,3.13,1.82.59-.25,1.34-.91,1.94-1.95,14.05-24.33,8.92-35.6,14.28-43.56,1.52-2.26,3.24-3.74,5.83-3.61,1.95.1,4.3.43,5.22,3,3.47,9.67-3.65,12.3,2.63,16.73,2.76,1.95,5.49,3.29,8.89,2.23,8.21-2.57,5.52-8.86,8.44-16.52,1.04-2.72,2.96-4.45,5.72-4.11,1.75.22,4.41,1.54,4.78,4.05,2.27,15.46-3.18,24.34,2.01,36.15,3.15,7.16,13.33-4.24,14.27-5.04,15.48-13.02,5.57-22.99,11.95-33.23,1.2-1.93,3.86-3.69,6.05-2.63,8.28,3.98,2.72,18.49,4.69,27.47,3.32-2.7,4.13-6.55,6.19-10.02,5.73-9.67,13.98-23.11,26.03-18.04,15.96,6.71-.1,38.24,9.62,42.57,7.41,3.3,20.69-10.63,26.03-15.57,3.08-2.84,6.21-4.96,8.77-8.44,4.49-6.08,10.97-10.74,17.56-13.89,9.71-4.64,19.25-1.91,28.19.72,3.04.89,9.97-3.38,10.56,3.13,2.32,25.8-4.18,59.21-12.17,84.51-10.55,33.41-31.86,61.6-61.51,80.01-16.64,10.34-41.9,12.72-51.4-7.11ZM391.04,345.68c7.41-7.26,12.34-16.41,15.66-26.13-9.45-3.87-18.74-1.32-25.72,5.15-8.94,8.28-15.05,23.63-8.09,28.55,5.29,3.74,13.87-3.38,18.15-7.57ZM335.73,472.39c33.98-21.61,58.35-60.21,65.9-100.73-26.94,15.04-59.54,37.21-78.74,59.88-7.12,8.41-20.97,30.51-14.09,40.61,6.09,8.94,18.66,5.5,26.92.25Z"/>
      <path d="M542.27,203.22c3.41-1.78,9.82,1.67,9.41,5.96l-3.36,34.96-1.46,22.81-1.26,19.16c-.47,7.11-.88,13.81-1.15,20.93l-.56,15.03c-.18,4.73-1.26,9.15-.33,14,22.43-11.99,43.57-25.45,62.7-41.98l4.89-4.22c20.08-17.34,43.25-42.51,57.08-65.19,11.06-18.13,25.56-46.97,12.68-67.01-13.06-20.32-42.92-20.88-64.49-19.26-40.22,3.01-87.36,16.9-122.05,37.49-8.74,5.19-36.72,23.16-30.21,35.25,5.25,9.77,29.04,15.18,39.6,16.66,7.11.99,14.05,1.49,21.34,4.29-5.63,9.94-38.4,2.56-47.3.32-9.15-2.31-18.65-5.57-25.03-12.24-7.51-7.85-6.96-18.6-.68-26.49,10.13-12.72,28.48-24.23,43.13-31.75,34.72-17.83,72.16-29.3,111.01-33.84,12.94-1.51,30.85-1.79,43.28-.15,11.9,1.57,22.76,4.78,32.46,11.73,31.56,22.65,15.58,64-1.45,90.86-32.22,50.8-84.97,91.49-138.41,118.28.31,6.92-.76,12.84-1.03,19.26l-.78,19.06c-.34,8.31-3.73,60.27-7.93,62.46-.98.51-2.53.87-3.65.03-1.8-1.34-3.26-3.95-3.19-6.48.22-7.77-.48-15.32.32-23.06.88-8.49.88-16.51.99-25.01.07-5.37,1.38-10.54,1.07-15.97-.42-7.51.65-14.41-.26-22.94-15.02,6.31-28.89,12.28-43.87,17.12-6.46,2.09-33.27,9.74-38.03,7.25-1.51-.79-.49-2.94-.13-3.93.67-1.84,2.35-2.4,4.46-2.84,26.64-5.57,54.33-16.53,78.36-29.93,1.37-8.96,1.16-17.71,1.68-26.74l1.17-19.98,1.02-23.01,1.05-20.94.9-13.32c.67-9.87,1.86-19.3,4.1-29.07.61-2.68.57-5.82,3.88-7.55Z"/>
      <path d="M183,408.38l-18.63-.95c-20.55-1.05-40.33-1.17-60.86,0-9.58.55-18.56-.28-28.05,1.08-5.6.8-11.39-.51-17.02,1.71-3.79,7.97-7.34,15.86-13.95,21.93-10.72,9.85-27.33,10.57-38.61,1.7-3.55-2.79-5.59-6.67-5.85-10.37-.89-12.87,18.17-19.93,29.25-21.22l19.03-2.22c6.01-23.53,9.57-46.4,12.25-70.14l6.31-55.9,12.35-119.28,1.18-18.69c.24-3.77-1.23-7.34-1.16-11.05.09-4.53,4.47-7.74,9.12-6.61,3.56.87,6.79,4.35,7.19,8.06.7,6.55-1.13,28.16-2.02,35.78l-8.2,69.78-4.7,44.96-7.49,60.15c-2.62,21.02-6.33,41.16-11.26,61.9,9.67.72,22.25-1.31,31.55-1.55l17.02-.46c6.44-.17,12.51-.57,19-.88,15.53-.73,30.44-.05,45.92.89l16.09.98c9.76.59,19.19,2.2,28.55,4.88,4.85,1.39,17.07,7.06,14.71,11.16-.42.72-1.87,1.85-3.27,1.53-15.89-3.58-31.56-6.32-48.46-7.18ZM44.3,411.06c-9.28-.22-18.04.98-26.25,4.78-3.44,1.59-7.59,5.97-6.01,9.7,2.31,5.46,8.55,6.57,13.78,6.32,9.39-.45,15.05-12.44,18.48-20.8Z"/>
      <path d="M684.15,314.81c7.56-5.42,21.94-7.73,27.29,4.3,6.5,14.59,1.44,32.84-12.3,41.3-5.02,3.09-10.89,2.74-16.2.79-4.66-1.7-8-6.12-10.05-12.39-6.18,8.75-16.23,25.28-29.31,19.9-10.49-4.31-7.55-27.22-3.52-36.82-1.52-1.77-3.94-.58-5.61-.26-5.58,1.09-10.11-1.42-11.2-7.04-1.14-5.89.35-12.44,4.68-17.02,2.35-2.49,7.95-1.79,9.41,1.15,1.9,3.84-.37,7.46-.24,11.59.91,2.76,8.78-1.15,13.22,3.29,4.25,4.24,2.36,11.39.56,17.1-1.43,4.51-3.69,15.27.46,17.14,5.46,2.45,18.06-11.91,19.64-18.01,2.45-9.44,4.71-18.96,13.18-25.03ZM701.65,340.45c.8-4.42,2.2-21.35-3.78-22.38-8.66-1.49-17.81,21.54-11.86,33.31.92,1.83,2.44,3.12,4.15,3.32,6.07.7,10.33-7.85,11.48-14.25Z"/>
      <path d="M730.92,360.89c-7.32-3.69-10.19-11.25-10.38-18.74-.3-11.65,4.58-22.19,13.94-28.91,10.06-4.6,21.98-4.39,26.47,7.19,5.04,13,1.54,27.77-8.9,37.2-5.57,5.04-14.06,6.83-21.12,3.26ZM748.68,319.03c-1.83-2.62-6.91-.21-8.54,1.82-9.87,12.27-9.65,32.17-2.14,33.49,13.35,2.35,17.16-26.9,10.68-35.32Z"/>
      <path d="M851.69,334.06c-13.55,9.88-25.68,20.23-40.78,7.57-8.13-6.81-12.92-16.55-16.81-26.18,19.34-26.75,34.85-57.89,44.71-88.59,3.37-10.48,8.17-36.54-1.46-43.58-6.94-5.07-16.32-4.42-23.28.79-9.56,7.16-15.5,17.3-20.28,28.4-11.77,27.35-17.68,55.89-21.55,85.49-4.48,34.3-3.38,70.81,5.47,104.04,2.71,10.18,6.5,19.58,13.4,27.33,4.43,4.97,11.31,8.37,17.35,4.62,11.57-7.18,7.13-40.85,3.96-51.82l-9.88-34.18c7.09,6.88,14.83,10.28,23.72,8.72,9.94-2.54,18.09-8.32,24.59-16.11,1.99-1.71,3.25-4.92.83-6.5ZM787.1,294.98c3.82-30.02,10.65-66.8,26.28-92.8,3.43-5.71,10.34-16.42,17.16-13.83,3.93,1.49,3.26,13.91,2.61,17.51-6.04,33.59-25.72,73.12-46.24,101.44-1.8-4.13-.33-8.14.2-12.32ZM802.9,426.16c-6.37.88-11.11-13.27-12.21-18.29-4.48-20.52-10.21-54.02-7.32-73.74.35-1.7-.65-3.53.82-5.56,2.39,1.27.77,3.35,1.26,4.71,4.81,13.28,8.45,26.23,12.07,39.81,1.89,7.11,12.7,52.06,5.37,53.07Z"/>
    </g>
    <g>
      <path d="M822.39,516.86c-1.07-1.49-3.6-.89-5.06-1.52-11.08-4.76-25.12-1.48-38.42-10.6-3.61-2.47-8.05-3.63-10.7-7.62l17.23,1.05c3.15,2.44,21.51,3.28,27.78,3.93,14.02,1.45,31.92-2.44,42.17-12.95,2.25-2.31,5.22-2.9,7.33-6.22-25.42-9.58-52.8-3.62-75.93,7.71-1.15.56-1.97,1.28-2.19,2.22-9.45,1.66-19.14.52-29.12-.29-7.25-.59-14.3.15-21.35-2.62,1.13-2.02,3.52-2.44,5.71-2.7,6.31-.74,28.92-2.95,31.85-6.09-.52-3.22-16.68,3.24-17.28.57-.15-.66-.02-1.28-.02-1.75,2.12-.36,4.06-1.62,6.21-2.86,12.93-7.49,27.03-15.31,40.98-18.54-9.1-3.74-40.35,14.96-47.2,20.38-2.19.09-4.72,1.13-6.77,2.34-1.72-3.12,10.34-13.89,12.6-15.5,8.5-6.01,18.8-8.99,29.17-9.98,7.32-.69,14.24-1.9,21.35-.37-9.26,11.77-21.94,17.47-34.32,23.36-.64.3-1.6-.1-2.3.42-.54.41-.87,1.08-.68,1.87,1.07-.03,2.28,0,3.31-.38,16.84-6.15,21.16-9.16,33.85-21.5,1.73-1.68,4.49-2.55,4-5.35-7.36-1.91-15.14-1.16-23.15-.57-12.78.94-25.43,4.15-34.81,12.88-4.93,4.59-9.76,9.14-12.01,14.95-7.38,7.11-22.22,7.39-32.47,5.76l-29.56-4.7c-.39-1.4-2.33-1-3.42-.79-1.57.31-3.29-.46-4.82-.32l.04-1.69,14.99-4.39c7.5-2.19,15.1-4.05,23.17-6.09,17.48-4.42,32.99-14.46,41.84-29.73l8.05-13.89c1.18-2.04,3.57-3.48,2.4-6.18.23-.85-21.48,5.92-17.5,5.26-10.38,1.71-21.32,7.07-30.64,13.04-7.42,4.76-23.98,17.56-27.08,24.75-9.24,8.64-5.28,11.52-20.12,16.17-1.64-.7-5.92-.23-6.1,1.65-.6-.04-1.19-.04-1.79,0-.63-.7-1.69-1.18-2.54-.85-.75.29-1.39,1.08-.82,1.82l-1.65.07c-.72-.75-1.71-1.02-2.61-1.03-1.09-.01-2.43.7-1.75,1.93l-1.67.04c-1.15-1.23-2.86-.81-4.11.1-.93-.32-.81-1.26-.29-1.94,1.91-1.16,3.48-3.08,5.5-4.14,8.92-4.66,16.58-11.46,24.57-18.14,5.33-4.46,9.57-9.43,13.03-14.84,1.81-2.83,4.76-4.94,6.54-8.47,3.82-7.57,7.32-14.81,9.75-23.07.73-2.5,3.25-4.79,2.01-7.7-6.36,2.33-10.74,6.95-16.15,9.38-15.06,6.76-28.02,18.27-36.94,32.77-5.43,8.83-8.83,18.12-12.9,27.11-1.82,4.01-4.06,9.75-8.72,11.61-10.07,4.03-20.34,6.17-30.22,9.36-4.07,1.32-8.57,1.6-12.88,3.62-5.14,2.41-11.13,2.17-15.38,5.44l-1.78-.1c-.4-.48-1.15-1.06-1.59-.82-.76.42-1.26,1.25-.73,1.84l-5.75.28c-.39-.38-.76-.8-1.08-1.24,1.1-.21,10.05-6.83,10.09-8.76-1.33-.75-2.61.38-4.67.84.84-4.28,4.22-7.33,5.79-11.64,5.83-15.98,14.55-30.58,17.36-48.28.56-.41.92-1.07.92-1.82,0-1.25-1.02-2.27-2.27-2.27s-2.27,1.02-2.27,2.27,1.02,2.27,2.27,2.27c.36,0,.7-.09,1-.24l-23.44,55.33c-.51,1.19-.87,2.1-1.85,2.4.17-.54.15-1.4.1-1.97-.03-.35,1.04-15.49,1.1-15.94l1.22-9.05c1.77-13.1,15.67-34.37,25.21-43.21,1.44,4.8-3.18,5.68-.53,9.44,3.04-3.35,2.39-7.17,3.71-10.3.7-1.67.51-3.49,2.36-5.09l.13,26.08c.05,10.01-4.21,19.77-9.35,28.7-4.01,6.98-9.39,12.25-13.79,18.34-1.64,2.27-3.17,3.07-1.1,3,.74-.81,1.23-2.25,2.12-2.9,5.02-2.86,8.34-7.99,11.8-12.97,7.26-10.45,11.59-22.13,12.06-34.29.14-3.77,2.12-27.67-1.48-29.2-2.94-1.24-4.61,3.81-5.61,4.49-1.84,1.24-2.93,3.19-4.65,5.13-9.72,10.96-21.05,27.58-22.25,41.8-.33,3.88-.95,7.7-1.87,12.05-.73,3.45.61,7.1-.65,10.11-1.39,3.32-.9,7.28-.43,10.84-2.67,6.82-22.8,8.77-30.39,9.93-12.38,1.89-24.18,4.26-35.82,7.08l-11.45,2.77c.85-5.24,6.44-8.06,7.59-12.8.18-.73-.35-1.25-1.06-.93-2,1.37-4.14,3.74-5.46,6.18-4.78,8.82-12.97,12.06-21.56,15.58h-3.77c-.48-.13-.98-1.15-1.54-.82-.81.48-1.39,1.12-.79,1.78-5.06.4-13.37.15-17.65.06l-.1-1.92c1.01-.49,2.01-1.79,3.2-2.02,4.13-.8,6.05-4.13,7.6-7.8,2.21-2.29,4.98-4.3,7.78-6.66,11.47-9.64,18.15-30.23,19.58-44.53.91-.79.79-1.78.8-2.88l.02-16.08c0-3.26-.93-6.8-4.3-9.51-2.55,5.28-5.26,9.33-8.49,13.63-10.34,13.77-16.33,28.18-20.96,44.68-1.99,7.11-2.48,14.29-5.09,21.24-.62,1.64-1.69,2.78-2.12,4.17-1,3.25-3.6,6.41-7.13,6.09-5.81-1.72-7.38-6.33-7.92-12.19-2.08-22.43-12.04-42.36-30.83-55.48-4.71,21.1,5.08,41.85,19.68,55.41,4.3,3.99,8,8.3,13.35,11.98.12,4.04-6.65-.9-7.28,1.94-3.51-1.11-7.33-1.4-10.95-1.27-.39-.21-.75-.56-1.17-.72-6.94-2.7-6.25,1.12-14.91-7.18-.7-1.37-1.04-3.64-2.86-4.89-11.1-7.66-21.41-23.02-42.36-22.49,2.73,3.92,3.76,7.51,6.52,10.47,7.43,7.94,16.89,13.45,26.88,17.81,1.55.68,2.66.99,2.85,2.48-8.88.3-17.24-3.31-25.97-4.75-1.41-.23-3.66-.67-5.03-1.24l-5.64-2.34c-8.36-3.46-17.33-5.05-25.59-8.95-7.76-3.67-14.7-8.93-21.18-14.34-5.17-4.31-8.24-10.38-6.65-16.51h1.14c-.01-2.84-1.42-6.03-1.88-8.86l-.99-.03c.12-4.35-2.35-8.24-3.2-12.11-1.81-8.29-5.38-17.58-11.97-23.04-.73-.15-1.16.43-1,1.12,4.07,6.99,9.8,13.9,11.9,21.88,2.08,7.94,1.77,16.94,3.31,24.99h-1.25c-3.63-9.36-9.33-17.79-13.75-27.37-5.42-11.75-11.36-22.67-18.46-33.48-.36-.55-.33-1.17-.55-1.69-.13-.32.26-.66.8-.47,6.57,3.34,11.14,9.47,16.85,14.02,3.19-3.99-18.61-20.27-24.27-21.36.74,13.78-1.69,18.28,1.82,31.1,3.55,12.98,9.44,24.38,18.72,34.26,2.2,2.34,5.03,4.07,7.52,6.33,6.74,6.09,15.26,8.8,22.1,16.08-11.77-1.59-21.79-3.98-32.71-6.21-6.06-1.24-12.55-5.42-15.91-10.33-2.3-3.37-3.68-7.39-7.34-10.85-12.68-12.01-32.46-27.44-49.54-29.8-1.55-.21-3.38-1.83-5.26-1.12-2.31-1.08-5.75-2.57-8.94-1.89-1.88,2.13,1.04,4.66,2.26,6.57,11.46,17.96,28.58,29.55,48.75,34.41,4.94,2.39,10.63,4.9,16.17,6.36,3.19.84,6.07,3.23,9.23,5.54-4.44,1.21-36.13.15-35.65,0-.96.31-2.9-.32-3.92-.1-11.95-3.19-21.24.86-29.92-12.93-11.38-18.08-29.7-31.01-50.51-37.2-3.78-1.13-6.9-2-10.36-2.41-2.71-.32-5.75-1.87-8.7-.18l7.26,14.15c2,3.9,5.45,5.7,7.54,8.56,10.99,15.05,37.94,24.25,55.73,27.12,7.13,1.15,13.71,3.78,22.11,4.53-7.1,2.19-24.61,4.54-29.73,4.69-.77.02-2.46-.42-2.29.87l-4.95.64c-.45-.32-.97-1.01-1.44-.75-.83.46-1.36,1.16-.77,1.77-1.14-.13-2.58.28-3.67.05-4.18-1.89-9.11-1-13.31.03-2.47.6-7.25-.1-9.54-1.09-6.75-5.34-41.5-16.83-49.11-16.83h-18.45c-2.48.01-5.42,1.77-8.15,2.95,2.55,5.85,7.56,8.57,12.33,11.06.5.11,1.99-.14,1.42-.8-3.21-3.06-8.28-4.89-9.43-9.39-.51-1.99,2.96-1.86,3.99-1.54,0,.93.55,2.47,2.11,2.56,6.82.39,12.63,3.09,19.11,4.84l30.68,8.25c2.59.7,4.94,1.25,7.19,1.08v1l-11.09-.1c-1.01,0-1.71.33-2,.89-.45.32-.74.79-.91,1.31.34.02.75-.17,1.07-.07,4.29,1.35,8.69-.93,12.93-.92l15.93.05c.18.66.47,1.27.85,1.84-6.43,1.71-12.36,5.25-19.37,6.68-7.94,1.62-16.03,2.7-23.99,4.02l-22.4,3.7c-9.47,1.56-18.75,2.45-28.24,6.61-6.39,2.8-12.85,5.58-17.44,11.2-5.47,6.7,13.36,3.15,15.63,3.25,12.33.58,23.26-2.26,34.16-7.57,3.21-1.56,5.69-2.76,8.05-4.67,2.24-1.82,7.29-1.16,8.91-4.51.66-.09,1.36-.32,1.93-.71.24-.16.7-.23,1-.24,1-.02,1.53-1.1,2.21-1.53,5.89-2.48,11.81-4.58,18.53-5.86,9.02-1.71,24.88-10.6,40.97-13.39l-.02,1.17c-2.26,2.62-6.3,2.57-9.4,4.41l-10.69,6.34c-13.46,7.97-29.16,28.8-33.29,45.72,8.81-2.35,16.12-5.31,23.76-8.84,7.49-3.46,12.71-9.53,18.56-15.04,2.69-2.53,3.51-5.09,5.07-7.71,1.62-2.73,4.32-4.92,5.87-8.34,2.49-5.52,6.2-10.38,9.79-15.12,6.85-9.06,23.66-6.39,36.7-9.86.56-.15,1.19-.13,1.77-.19,2.45-.26,7.91-1.28,8.6.95.25.81-.34,1.69-.86,2.32-15.19,2.46-28.7,14.06-37.49,27.16-2.72,4.06-5.38,7.73-6.86,12.05-1,2.94-3.05,5.35-3.89,9.26,1.31.5,2.6.07,3.6-.28,15.97-5.53,32.47-12.8,42.97-27.06l14.85-20.17c1.42-1.92,4.8-1.62,7.05-2.37,10.1-3.37,48.11,4,55.35,7.04l17.86,7.49v1.18c-5.92.47-11.91.76-17.83.4l-8.17-.5c-9.69-.59-19.34-.41-28.77,3.53-15.79,6.6-28.93,16.91-39.09,30.55-1.22,1.64-3.55,2.5-3.55,4.88,16.67,2.38,32.13-.43,46.35-10.22l19.52-13.45c4.14-2.85,9.07-5.04,12.42-8.06,4.95-1.68,23.12-5.44,27.82-4.14,6.9,1.91,13.71,4.6,20.45,5.13,1.01,1.67,3.35,1.23,4.92,1.9,4.86,2.07,9.84,2.49,15.81,4.59-2.22,1.89-4.87,2.49-6.72,2.54-19.08.55-49.96,2.28-63.97,16.56,1.12-1.15-14.33,9.61-7.91,10.36l17.74,2.09c2.39.28,27.55-1.04,24.94-5.53-12.79,3.53-26.02,4.41-39.56.65,2.4-2.68,3.71-5.27,5.68-6.7,10.09-7.37,21.73-11.76,34.59-12.99l28.33-2.7h1v1c-2.04-.52-3.56,1.64-4.88,2.33-3.39.55-6.05,2.87-9.59,4.26-13.36,5.25-27.24,8.29-41.51,10.54-2.84.45-5.86-.13-8.12,2.37,22.02-1.97,38.26-5.66,58.01-14.59.4.31.74.69,1.02,1.12-6.24,5.82-14.09,10.03-22.37,13.43-1.02.36-2.16.42-1.59,1.62,1.53,1.12,3.17.44,4.92-.41,9.13-4.43,17.73-9.14,23.95-16.41,2.29-2.68,7.94-5.51,11.22-6.83,5.76-2.32,11.59-.11,16.9-.57-.35.6.06.7.6.92.64.27,1.09-.35,1.48-.59,1.18.1,2.48.41,3.67.17-.64.92.54,1.35,1.05,1.52.69.23,1.7.02,2.32.03.9.02,1.98-.19,2.85-.03.69.48,1.4.84,2.28.92,2.14.19,6.05,2.11,6.99,4.45,3.72,9.22,12.48,15.38,22.02,19.29,5.67,2.32,11.04,5.12,17.79,3.77-7.85-9.6-12.23-15.61-23.57-22.48-2.06-1.25-4.53-1.46-5.55-3.42l22.11-.37c7.76-.13,15.12.59,21.95,2.99-.58.48-.18.95.09,1.32.64.86,1.61.38,2.22.64,1.1.46,2.56,1.13,3.48,1.88,8.09,11.42,20.7,19.23,34.23,22.82,2.17.57,4.72,1.22,7.29,1.39l10.74.71c1.69-1.07-1.04-2.11-1.22-2.9-.34-1.57-1.87-3.71-3.37-5.29-11.58-12.27-29.74-19.69-45.56-21.49-2.55-.29-4.99-2.15-7.69-2.11l-.16-2.19,18.87-7.25c3.2-1.23,6.94-.93,9.09-3.26,6.16-.44,12.24-1.86,18.81-2.91,9.91-1.59,20-1.63,29.68-4.34,19.33-5.41,24.04,1.28,38.69,8.22,5.71,5.68,13.67,9.03,21.3,13.02,11.16,5.84,23.39,7.91,35.48,8.74,4.57.31,9.15.8,14.24.11-.42-2.85-3.39-3.83-5.26-3.38-.57.47-1.4,1.27-2.84,1.3l-6.22.11-10.45-1.56c-13.78-2.06-26.11-7.59-37.62-15.25-2.67-1.78-4.98-3.48-7.7-4.17l-5.38-4.59c18.49,1.86,41.85,14.13,59.23,20.5,1.69,1.31,3.48,3.83,6.25,3.39-1.46-3.07-4.4-3.04-6.34-4.22-15.87-9.64-33.69-15.74-51.92-21.09-1.19-.35-1.94-.82-1.98-1.72,4.65.41,9.56-.56,14.18.24,3.08.53,6.53,1.61,9.85,1.14.76.8,2.12.61,3.06.95,3.36,1.22,7.07,1.9,10.6,3.69,10.08,5.12,18.34,12.17,26.31,19.52,1.13-2.92-6.71-8.32-9.22-10.66-6.27-5.82-20.05-14.26-27.69-14.26-.76,0-2.35-.1-3.01-.49-2.19-1.29-7.4-.96-10.01-1.06-3.12-.12-6.28-1.5-10.01-1.41-5.89.15-11.42.03-16.81-.15.6-.79-.8-.81-1.24-.99l1.06-.99c3.32.16,6.55-1.1,10.09-2.19l19.81-6.06c6.7-2.05,13.76-3.41,21.23-4.36,7.9-1,16.01.68,22.95,4.25,19.17,9.86,19.29,15.76,35.9,29.29,6.67,5.44,12.9,10.91,22.03,14.03,9.61,3.28,19.54,6.16,30.3,6.39-3.37-3.96-4.94-7.72-7.48-11.3-7.63-10.76-16.97-19.94-28.99-25.51-10.06-4.66-20.36-7.73-30.8-9.45-17.46-2.88-22.41-9.44-31.88-9.21l-.06-1.98c10.43-2.28,21.01-3.98,31.72-3.82,1.65.02,3.53.14,5.22.08,6-.23,12.16,1.23,18.46,2.01,12.69,1.58,27.43,9.38,36.15,17.67,4.87,8.93,12.31,16.12,19.94,23.61,9.38,9.19,20.14,16.27,32.22,21.45,1.88.8,3.65.61,5.14,1.1,2.45.81,5,1.48,7.95,1.86.39-2.49-1.43-3.35-2.11-4.71-.71-1.43-.86-3.28-2.23-4.85-5.55-6.39-10.47-13.11-17-18.67-12.14-10.32-25.7-18.2-39.79-24.59-3.72-1.69-7.05-4.58-12.01-5.41-1.5-.51-1.27-2.03.15-2.59,12.13,2.48,23.91,3.49,36.1,4.45,5.13.41,8.53,4.32,12.55,6.88l18.28,11.6,19.03,15.03c17.63,13.92,31.44,18.27,54.79,17.33-2.72-9.98-30.37-29.5-39.73-29.56ZM857.04,483.82c-5.88,7.6-17.87,14.08-26.87,15.13-20.25,2.35-36.17-2.27-42.68-1.63l-.04-1.22c1.19-.86,3.16-1.19,4.71-1.27,2.13-.1,4.32.1,6.88-.38l29.51-5.44c6.29-1.16,12.34-1.42,18.5-4.26-10.9-.04-20.77,2.91-31.31,4.62l-23.25,3.76c-1.34.22-2.71.26-4.06.11l-1.08-.2c17.06-9.62,49.37-17.1,69.68-9.22ZM690.4,462.89c16.95-18.92,33.66-28.35,57.2-37.01,3.28-1.2,6.77-1.28,11.75-2.22-2.56,5.45-3.42,10.38-6.3,14.4-7.01,9.8-15.53,18.86-27.27,23.49-9.93,3.92-19.76,7.36-31.02,8.85,13.63-10.72,28.98-17.58,40.3-30.5-16.62,11.05-31.12,22.29-47.39,31.7-.58-.07-1.18,1.09-2.6-.17,2.85-2.43,3.68-6,5.33-8.54ZM395.69,466.12c2.56.14,2.21,3.12,4.53,4.17l18.43,40.72-.43,1.99c-14.46-10.76-21.96-28.9-22.53-46.88ZM401.17,470.21c-1.61-2.03-1.39-6.14-4.73-7.11-1.17-5.5,14.76,14.7,16.45,17.44,6.18,10,9,21.42,10.29,32.75-7.4-11.46-15.32-34.66-22.01-43.08ZM290.42,483.26c-26.02-17.24-39.1-38.68-36.37-70.63.93.65,1.24,1.71,1.69,2.66,3.77,8.04,8.57,15.55,12.79,23.85l15.54,30.54c2.1,4.12,4.05,8.06,6.89,11.17.26.61.48,2.07-.54,2.4ZM246.57,477.1c-.08-1.49-1.33-2.37-2.69-3.37-4.57-3.37-17.59-14.23-21.26-13.62-.07,2.36,18.79,13.14,19.95,15.85-.02,0-.04.01-.07.02-4.81.07-6.87-1.72-10-1.89-2.85-.15-5.55-2.55-8.32-3.72-10.04-4.21-19.35-9.27-26.72-17.34-3.88-4.24-8.62-7.93-11.05-12.78,7.86.87,24.44,12.62,31.8,17.94,1.53,1.1,2.7,2.2,4.41,1.92.07-2.53-2.78-2.98-4.68-4.41-9.16-6.87-18.85-12-27.5-17.6,1.51.86,3.52.19,5.04.7,20.85,7,39.41,19.23,53.57,36.66.76.94.54,2.71-.3,2.88-.8.15-1.8-.61-2.17-1.24ZM159.14,458.53c-1.63-1.33-2.9-2.66-4.85-2.34-.24,1.75,1.22,2.3,2.63,3.3l29.85,21.23c-9.85-1.28-18.95-4.84-28.24-8.58-7.55-3.04-14.36-7.22-19.98-13.09-1.33-1.39-2.44-2.61-4.07-2.85-3.12-5.85-8.27-10.69-9.83-17.16,1.36,1,3.39,1.1,4.82,1.76l19.47,12.72c1.84,1.2,3.32,3.01,5.35,2.67.45-3.2-21.31-15.59-24.9-16.95l-.13-1.78c13.67,2.74,27.27,8.23,38.41,17.36,5.22,4.28,9.35,9.3,14.04,14.04,2,2.03,2.9,4.88,5.49,5.62.14.94.52,1.84,1.23,2.48,1.97,5.8-28.03-17.4-29.3-18.43ZM137.45,495.53c-14.62-3.28-29.15-6.82-43.79-11.79-2.69-.91-4.98-1.46-7.36-1.63l-.62-1.73c3.45.4,7.46-1.1,10.9-.28,14.68,3.5,30.02,7.24,42.86,15.01-.63.03-1.37.49-1.99.42ZM64.41,522.94l24.15-6.13c3.32-.84,7.47-.06,10.83-1.41v1.02c-8.04,4.18-17.15,5.97-26.29,8.62-8.32,2.41-15.83,5.88-24.98,7.08,4.14-5.27,10.18-7.63,16.29-9.18ZM100.5,523.29l-7.48,2.63c-8.28,2.92-16.29,6.89-25.14,7.66-6.29.55-12.02.71-18.59,1.62,1.69-2.41,4.41-1.72,6.76-2.64,8.65-3.38,17.25-5.47,26.14-8.02,8.45-2.42,16.31-5.61,24.53-7,1.14-.77,1.23.68.87,1.35-2.28,1.47-4.58,3.5-7.09,4.39ZM172.76,502.54c.19,3.96-3.3,4.58-5.38,6.63l-27.68,27.14c-2.72,2.67-6.53,3.83-8.12,7.84-2.19-.44-2.62,2.74-4.82,1.12,11.86-21.9,23.1-32.73,46-42.73ZM167.24,523.24c-10.75,13.32-23.92,24.44-41.7,28.12l5.84-6.53c4.72-2.59,8.01-5.85,11.59-9.29l14.24-13.68c4.82-4.63,9.58-8.95,14.34-13.63,1.37-1.35,2.59-2.56,4.05-3.22l.77,1.07-9.13,17.15ZM195.73,520.36c8.09-11.91,19.9-20.95,33.54-24.32l.93,1.05c-4.44,2.31-25.86,23.47-31.89,27.94-3.07,2.28-4.77,6.18-9.27,6.59,1.19-4.91,4.24-7.66,6.68-11.27ZM237.32,498.95c-7.17,7.79-12.96,19.99-24.37,27.78-4.07,2.77-22.44,12.77-26.45,11.26.06-.58.43-1.19.37-1.78,7.5-3.42,18.1-14.74,24.43-20.24l19.29-16.78c1.43-1.24,2.89-2,3.9-3.29.89-1.14,3.83-.81,4.9-1.96.65,1.94-.62,3.45-2.06,5.01ZM258.72,519.14c8.87-5.3,18.13-8.89,28.63-9.39,3.41-.16,7.03-1.41,10.08-.65,1.86.46,4.1,1.3,5.67,2.4-4.11-.12-7.81,2.63-11.44,3.44-7.1,1.6-13.67,4.44-20.48,8.17l-27.71,15.14-11.46,4.81c6.42-10.65,16.26-17.68,26.71-23.93ZM297.53,517.4c-21.62,14.18-39.83,31.42-67.19,27.96.51-2.89,3.14-1.2,4.81-1.9,7.93-3.31,15.23-7.21,22.95-10.94l33.72-16.3c3.3.04,6.52-1.52,9.76-2.15-.21,1.93-2.4,2.24-4.04,3.32ZM354.94,497.49c-.07-1.52-.16-3.29.13-4.57,9.67,1.93,16.97,7.41,24.1,13.42l11.37,9.93c-9.07-2.84-15.45-9.09-23.21-13.87-3.2-2.42-5.88-5.07-10.21-5.87,2.71,3.86,6.49,4.68,9.36,7.41l19.14,13.33c-12.41-3.16-22.17-10.88-30.69-19.78ZM420.52,533.15c8.92,5.38,18.04,10.73,27.12,18.73-4.63,1.3-25.57-10.9-27.12-18.73ZM447.43,548.13l-20.91-14.21.06-.98c8.22,2.47,15.58,7.78,20.85,15.2ZM477.72,444.16c1.2-1.5,1.93-.84,1.58,1,.26,5.31.17,10.63.07,15.94-.02.93.17,2.11,0,3-3.92,19.14-12.69,37.13-27.23,50.31-.98,1.28-2.16.39-1.63-.96,12.84-19.83,24.37-45.6,27.21-69.29ZM449.05,500.78c5.49-23.28,11.84-37.39,26.76-57.15-2.26,21.99-14.41,49.49-26.41,67.3-1.19,1.18-2.46,2.83-1.94,4.31-1.28.67-1.89,2.07-3.02,2.98l4.61-17.44ZM524.24,555.91c-5.04-1.2-8.94-3.26-13.24-5.58-10.08-5.43-19.8-10.28-30.19-16.62,13.06.96,35.09,10.23,43.43,22.2ZM494.08,543.58l25.29,13.33.04,1.06-7.64-.78c-11.98-5.01-23.72-10.55-32.27-21,5.34,1.72,9.64,4.78,14.58,7.39ZM664.99,502.22c.36-.12.88-.14,1.42-.15-.21,2.23,2.13,2.27,3.84,3.18,16.37,8.7,31.22,21.17,46.38,28.6,2.37,1.16,3.79,4.83,7.58,4.54-1.94-2.43-4.58-4.75-7.69-5.35l-45.71-30.93c27.9,4.71,47.12,15.4,60.43,39.62-4.59,1.09-7.44-.42-11.06-1.21-12.78-2.79-24.94-8.14-34.88-16.38,2.46,2.04-18.98-20.22-20.97-21.12.05-.35.3-.67.67-.8ZM668.22,431.92c6.98-7.49,16.24-11.11,23.4-17.53,1.89.38,15.36-9.18,10.88-1.33-.45.07-1.02-.07-1.53.06-.52.12-.71.75-.52,1.47.11.43.55.92,1.13.68-3.65,8.76-6.96,19.52-13.2,26.98-10.54,12.58-23.87,22.12-36.8,31.97-1.54,1.1-4.43.75-6.16,2.82-1.06-.49-1.05-1.12-.98-1.88,2.12.75,2.03-1.43,3.1-2.78,11.61-14.51,24.38-27.42,36.72-41.23l9.08-10.17c1.66-1.86,5.52-2.32,6.12-6.04-3.1.6-4.16,3.74-6.19,5.24-9.5,6.99-17.5,16.06-25.48,25.26l-5.6,6.45c-6.57,7.56-12.25,14.87-18.8,22.52,7.06-17.37,12.26-29.03,24.82-42.49ZM739.36,514.04c-1.7-2.42-4.81-3.61-4.88-7.66,1.88-.55,21.55,17.74,21.75,17.95,8.14,9.03,17.68,14.5,28.65,22.3-11.52.66-39.11-23.48-45.52-32.59ZM768.7,522.8c1.89,1.37,19.72,18.64,19.88,22.97-10.76-6.26-17.15-9.66-26.5-18.35l-23.71-22.05,1.23-.31c10.18,4.56,19.73,10.93,29.1,17.73ZM802.91,522.76c-1.75-1.44-3.97-2.58-4.33-4.66,1.81-.14,3.51.3,5.55,1.18l39.33,16.9c2.31.99,3.98,2.73,6.97,3.22.31.77.64,1.55,1.17,1.87.6.36,2.55.94,2.57.09-.15-1.81-1.85-1.72-2.51-2.2-6.42-4.75-13.94-7.55-21.63-10.89l-14.52-6.31c-6.68-2.9-12.87-5.98-20.19-7.85-1.89-2.42,20.77,3.28,22.06,2.14.58,1.83,2.91,1.12,4.18,1.71,10.35,4.81,20.64,9.51,28.97,18.01,2.28,2.33,5.83,3.39,6.32,7.77-21.42,2.18-38.53-8.32-53.95-20.99Z"/>
      <path d="M508.29,495.16c-.82,1.95,1.46,1.96,2.16,2.85,4.65,5.98,13.15,3.65,18.86,2.79,11.54-1.74,21.13-9.72,24.09-21.87,1.39-5.7-.9-12.31-4.76-17.09-7.82-9.69-25.53-.23-33.16,6.26-4.53,3.85-7.64,8.64-8.9,13.94-.63,2.66.2,6.14-1.08,8.89-3.29,3.1-7.62,5.08-9.08,9.1-.53.22-1.2.41-.82,1.11,2.46,4.48,6.79-7.3,12.7-5.98ZM549.1,466.86c.43,1.54,1.39,3.1,2.29,4.19.06,2.68.07,5.37-.23,8.03-1.81,1.2-2.21,11.1-14.82,17.02l-6.98,3.27c-4.76.45-9.54-.13-14.07-1.62-1.02-1.95-2.72-3.51-4.7-4.45-.07-1.31-.24-2.62-.19-3.94,5.88-7.21,15.37-20.66,24.17-24.31,2.94-1.22,6.56-.94,8.93-3.2,1.92,1.38,4.63,1.56,5.59,5ZM539.44,460.1c-1.23,2.87-4.51,1.81-6.04,3.9-9.28,2.56-16.54,12.71-21.87,21.01-.89,1.39-1.81,2.28-3.26,2.01.29-1.51-.36-3.41.17-4.86,4.88-12.15,18.04-21.2,31-22.05Z"/>
      <path d="M107.3,500.11h14.14c1.03-4.99-7.98.58-14.09-1.33-7.3-2.27-14.76-3.88-21.91-6.69-.68.05-1.22.44-.99,1.2l.97.11c2,3.49,18.74,6.71,21.89,6.7Z"/>
      <path d="M581.19,541.92c-5.18-6.49-13.53-9.37-21.36-13.1-13.2-6.27-27.31-8.67-41.8-5.79-1.33.26-2.77,1.12-2.93,2.01-.78,4.12,6.74,11.06,10,13.53,7.93,6.01,17.98,8.52,28.11,10.09,4.11.74,8.24.11,13.25-.02.99-.02,1.67-.82,3.13-.89l8.84-.39c.22.22.52.52.85.58.61.12.96-.49,1.39-1.55.91-.03,2.82.33,3.6-.48.72-2.15-1.86-2.45-3.09-3.99ZM569.49,546.1c-.82.18-2.14.34-2.96.35l-13.3.19c-6.85.1-31.69-8.47-35.82-20.85,5.53-3,25.8-.96,29.63.57,10.13,4.07,21.34,6.89,29.54,14.89,0,0-.01.02-.02.03-14.15-.55-25.54-6.36-37.57-10.39-5.26-1.76-9.84-4.98-15.84-4.36,15.42,6.68,39.29,17.05,55.35,17.31-1.63,2.27-3.19.95-9.01,2.25Z"/>
      <path d="M849.44,486.1c.76-.07,3.03.57,3.02-.97,0-1.63-2.51-1.3-3.02-.03-1.14-.05-1.27.99,0,1Z"/>
      <path d="M753.18,427.87c-.12-1.48-2.3-.36-2.87.99-5.39,2.11-10.82,5.57-15.09,11.09,5.42-2.12,9.99-6.38,15.02-10.14.71-.35,3.08-.17,2.94-1.93Z"/>
    </g>
  </g>
</svg>